<?xml version="1.0" standalone="no"?>
<!DOCTYPE svg PUBLIC "-//W3C//DTD SVG 20010904//EN"
 "http://www.w3.org/TR/2001/REC-SVG-20010904/DTD/svg10.dtd">
<svg version="1.0" xmlns="http://www.w3.org/2000/svg"
 width="600.000000pt" height="600.000000pt" viewBox="0 0 600.000000 600.000000"
 preserveAspectRatio="xMidYMid meet">
<metadata>
Created by potrace 1.14, written by Peter Selinger 2001-2017
</metadata>
<g transform="translate(0.000000,600.000000) scale(0.100000,-0.100000)"
fill="#000000" stroke="none">
<path d="M2705 5230 c-156 -23 -254 -44 -368 -80 -260 -81 -512 -213 -732
-385 -88 -69 -257 -232 -320 -309 -22 -27 -45 -54 -50 -60 -40 -43 -205 -295
-205 -313 0 -4 -6 -14 -14 -22 -30 -34 -155 -344 -181 -447 -69 -273 -80 -361
-80 -614 0 -179 7 -282 25 -365 5 -22 11 -56 14 -75 21 -141 101 -373 190
-555 194 -396 495 -719 881 -947 235 -138 515 -239 775 -278 41 -6 86 -14 100
-17 45 -9 424 -12 485 -3 33 5 81 11 106 14 168 22 403 90 574 167 28 12 52
23 55 24 3 1 28 13 55 26 526 266 937 744 1120 1303 43 130 78 275 90 371 4
28 10 77 15 110 8 63 6 442 -3 485 -3 14 -8 43 -11 65 -54 383 -229 783 -473
1085 -289 356 -683 621 -1118 749 -68 20 -148 40 -190 47 -11 1 -49 8 -85 14
-110 20 -129 21 -335 24 -152 3 -229 -1 -320 -14z"/>
</g>
</svg>
